HIERARCHY
ROOT Hips
{
 OFFSET 0.000000 0.000000 0.000000
 CHANNELS 6 Xposition Yposition Zposition Yrotation Xrotation Zrotation
 JOINT Chest
 {
  OFFSET 0.000000 9.585900 0.002600
  CHANNELS 3 Yrotation Xrotation Zrotation
  JOINT Chest2
  {
   OFFSET 0.000000 9.601200 -0.005300
   CHANNELS 3 Yrotation Xrotation Zrotation
   JOINT Chest3
   {
    OFFSET 0.000000 9.561800 0.000000
    CHANNELS 3 Yrotation Xrotation Zrotation
    JOINT Chest4
    {
     OFFSET 0.000000 9.552100 0.000000
     CHANNELS 3 Yrotation Xrotation Zrotation
     JOINT Neck
     {
      OFFSET 0.000000 14.453000 0.000000
      CHANNELS 3 Yrotation Xrotation Zrotation
      JOINT Head
      {
       OFFSET 0.000000 8.936500 -0.011300
       CHANNELS 3 Yrotation Xrotation Zrotation
       End Site
       {
        OFFSET 0.000000 17.073600 -0.006000
       }
      }
     }
     JOINT RightCollar
     {
      OFFSET -2.921100 9.558500 0.000000
      CHANNELS 3 Yrotation Xrotation Zrotation
      JOINT RightShoulder
      {
       OFFSET -13.519700 0.000000 0.000000
       CHANNELS 3 Yrotation Xrotation Zrotation
       JOINT RightElbow
       {
        OFFSET 0.000000 -29.696600 0.000000
        CHANNELS 3 Yrotation Xrotation Zrotation
        JOINT RightWrist
        {
         OFFSET 0.000000 -24.004700 0.000000
         CHANNELS 3 Yrotation Xrotation Zrotation
         End Site
         {
          OFFSET 0.000000 -17.728500 0.000000
         }
        }
       }
      }
     }
     JOINT LeftCollar
     {
      OFFSET 2.921100 9.558500 0.000000
      CHANNELS 3 Yrotation Xrotation Zrotation
      JOINT LeftShoulder
      {
       OFFSET 13.519700 0.000000 0.000000
       CHANNELS 3 Yrotation Xrotation Zrotation
       JOINT LeftElbow
       {
        OFFSET 0.000000 -29.696600 0.000000
        CHANNELS 3 Yrotation Xrotation Zrotation
        JOINT LeftWrist
        {
         OFFSET 0.000000 -24.004700 0.000000
         CHANNELS 3 Yrotation Xrotation Zrotation
         End Site
         {
          OFFSET 0.000000 -17.728500 0.000000
         }
        }
       }
      }
     }
    }
   }
  }
 }
 JOINT RightHip
 {
  OFFSET -7.771700 -0.012900 -0.001300
  CHANNELS 3 Yrotation Xrotation Zrotation
  JOINT RightKnee
  {
   OFFSET 0.000000 -40.869800 0.001200
   CHANNELS 3 Yrotation Xrotation Zrotation
   JOINT RightAnkle
   {
    OFFSET 0.000000 -39.717900 0.002100
    CHANNELS 3 Yrotation Xrotation Zrotation
    JOINT RightToe
    {
     OFFSET 0.000000 -4.965400 11.033500
     CHANNELS 3 Yrotation Xrotation Zrotation
     End Site
     {
      OFFSET 0.000000 -1.423100 5.872300
     }
    }
   }
  }
 }
 JOINT LeftHip
 {
  OFFSET 7.771700 -0.012900 -0.001300
  CHANNELS 3 Yrotation Xrotation Zrotation
  JOINT LeftKnee
  {
   OFFSET 0.000000 -40.869800 0.001200
   CHANNELS 3 Yrotation Xrotation Zrotation
   JOINT LeftAnkle
   {
    OFFSET 0.000000 -39.717900 0.002100
    CHANNELS 3 Yrotation Xrotation Zrotation
    JOINT LeftToe
    {
     OFFSET 0.000000 -4.965400 11.033500
     CHANNELS 3 Yrotation Xrotation Zrotation
     End Site
     {
      OFFSET 0.000000 -1.423100 5.872300
     }
    }
   }
  }
 }
}
MOTION
Frames: 13
Frame Time: 0.008333
-29.201117 44.674523 25.275772 177.331586 -24.020926 -1.830331 -0.254719 16.753621 2.858940 -0.109499 1.763135 0.238290 -0.147809 2.945477 0.513052 -0.482538 14.830011 2.551770 -2.072241 13.658418 -4.927703 -1.072538 -11.301293 -4.773464 15.810443 -2.954603 -14.079269 13.113698 -38.317242 -53.310194 -151.946607 -78.564227 155.012254 -11.274338 -8.233733 -22.887830 -19.445598 -5.113386 0.932634 -7.300817 -46.547182 33.353481 167.920779 -70.507203 -176.948637 18.326468 -3.696616 24.411928 4.840496 -64.883817 1.201447 -154.081850 69.344980 -150.651981 -9.064975 -23.875303 8.299759 -0.356951 0.013562 -0.186598 5.847810 -50.463100 -0.776741 177.850492 57.665325 177.520977 -2.659435 -42.495813 3.792556 0.036548 0.190268 -0.014343
-29.180624 44.668059 25.294464 177.419745 -24.209460 -1.884765 -0.350391 16.938892 2.746669 -0.088172 1.779246 0.325397 -0.153168 2.987055 0.473040 -0.468881 14.907649 2.516581 -2.107328 13.494996 -4.895499 -1.117270 -11.472965 -4.731852 15.634945 -3.020656 -13.548974 11.046167 -37.535470 -51.597548 -156.100205 -77.366937 160.907879 -10.695238 -8.299385 -21.871411 -19.116947 -4.971048 0.547627 -5.664169 -44.931861 31.650048 168.528995 -69.235254 -178.778958 17.846950 -3.398611 24.106288 4.767681 -64.792608 1.310354 -154.433059 69.316275 -150.967332 -9.391136 -23.720173 8.438532 -0.185036 -0.097732 -0.206357 5.715933 -50.290037 -0.692694 177.869858 57.672921 177.555999 -2.643437 -42.549259 3.777947 0.030119 0.233357 -0.020190
-29.153863 44.657502 25.316753 177.449973 -24.355679 -1.923370 -0.379686 17.081361 2.682866 -0.086261 1.804522 0.321742 -0.146478 3.014011 0.484909 -0.454803 14.983581 2.477049 -2.121200 13.340535 -4.844601 -1.143493 -11.635681 -4.674459 15.441899 -3.077131 -13.005585 9.046083 -36.725440 -49.928187 -159.045029 -76.185919 165.607249 -10.221486 -8.377792 -20.770914 -18.788941 -4.800446 0.185289 -4.261337 -43.266358 30.067502 169.023435 -68.121568 179.629469 17.344233 -3.134650 23.624632 4.726915 -64.727940 1.426325 -154.789392 69.306645 -151.291916 -9.626473 -23.676225 8.550321 -0.122646 -0.117581 -0.249454 5.648046 -50.174915 -0.606154 177.905521 57.663585 177.618833 -2.623258 -42.550711 3.755173 0.028872 0.209814 -0.015486
-29.124138 44.642173 25.342077 177.465408 -24.461267 -1.945336 -0.397153 17.176074 2.626433 -0.087746 1.827202 0.299958 -0.140807 3.040942 0.497800 -0.444298 15.055316 2.436886 -2.093693 13.218958 -4.756624 -1.163570 -11.797717 -4.630816 15.237809 -3.103938 -12.449322 7.136874 -35.838876 -48.373186 -161.187784 -75.035461 169.426761 -9.801927 -8.439655 -19.590603 -18.464340 -4.602067 -0.157236 -3.051249 -41.584285 28.566641 169.382489 -67.171615 178.267344 16.849678 -2.879735 22.976174 4.720484 -64.692840 1.509234 -155.139622 69.309878 -151.611701 -9.817549 -23.663325 8.683515 -0.092223 -0.111642 -0.329982 5.638696 -50.119840 -0.555540 177.922305 57.649303 177.679380 -2.620266 -42.526742 3.741963 0.031143 0.182458 -0.011601
-29.091116 44.623606 25.365581 177.484833 -24.560152 -1.963726 -0.422779 17.254504 2.567539 -0.079204 1.850424 0.329422 -0.149427 3.063957 0.460858 -0.438900 15.121672 2.401055 -2.058567 13.116016 -4.677499 -1.152191 -11.934306 -4.585949 15.020215 -3.058996 -11.903988 5.354259 -34.865299 -46.954736 -162.884098 -73.926440 172.637008 -9.395493 -8.453546 -18.341804 -18.139318 -4.372443 -0.485668 -1.957643 -39.938046 27.096467 169.474983 -66.393918 177.188405 16.364601 -2.617986 22.174781 4.719868 -64.665411 1.583338 -155.491557 69.305788 -151.932354 -10.013994 -23.671705 8.835219 -0.029941 -0.111051 -0.329182 5.615716 -50.054323 -0.508171 177.933301 57.645938 177.730276 -2.609199 -42.568543 3.725793 0.027044 0.213225 -0.017877
-29.059149 44.602027 25.384972 177.499425 -24.669858 -1.955306 -0.445144 17.350913 2.518021 -0.078338 1.863296 0.326008 -0.158783 3.069253 0.431241 -0.437765 15.180820 2.372433 -2.032406 13.026106 -4.633450 -1.105411 -12.018326 -4.533810 14.785066 -2.901661 -11.399031 3.758407 -33.818136 -45.644206 -164.437969 -72.887302 175.481672 -8.968185 -8.401872 -17.079262 -17.826879 -4.128570 -0.806837 -0.904344 -38.334739 25.626831 169.255962 -65.793040 176.382154 15.914343 -2.356531 21.229603 4.764922 -64.626732 1.607408 -155.832161 69.293313 -152.245675 -10.191706 -23.658699 8.987710 0.015408 -0.146447 -0.346381 5.619349 -49.982115 -0.492215 177.958547 57.636402 177.786241 -2.596476 -42.588637 3.712462 0.021638 0.241242 -0.025902
-29.024234 44.577001 25.400821 177.514946 -24.792316 -1.955014 -0.475445 17.409144 2.437837 -0.079190 1.909420 0.332246 -0.154462 3.069662 0.435953 -0.440672 15.233234 2.351317 -1.995114 12.959662 -4.630365 -1.057018 -12.038435 -4.471481 14.539526 -2.636834 -10.957099 2.383626 -32.697981 -44.390507 -166.028071 -71.950062 178.130554 -8.512436 -8.289746 -15.912200 -17.540922 -3.883950 -1.125747 0.138835 -36.748033 24.169226 168.835594 -65.336645 175.738892 15.533287 -2.096592 20.206421 4.776488 -64.580386 1.658771 -155.963566 69.236951 -152.359559 -10.301830 -23.650980 9.126955 0.064688 -0.182137 -0.362195 5.603623 -49.898547 -0.452369 178.003789 57.616307 177.856285 -2.578219 -42.605163 3.699212 0.014999 0.255169 -0.034218
-28.989749 44.547184 25.415250 177.527888 -24.916277 -1.950461 -0.498489 17.446360 2.361168 -0.086359 1.904387 0.304636 -0.144469 3.125824 0.474094 -0.445402 15.283073 2.334703 -1.950922 12.948538 -4.585348 -0.997363 -12.024173 -4.481832 14.292624 -2.304768 -10.586772 1.212864 -31.515486 -43.139085 -167.666357 -71.139078 -179.352016 -8.050221 -8.154365 -14.956772 -17.271224 -3.607352 -1.432234 1.112107 -35.176357 22.769417 168.406702 -64.975620 175.123610 15.209975 -1.824528 19.219862 4.774887 -64.539386 1.720528 -156.328621 69.211509 -152.716875 -10.480136 -23.687236 9.278306 0.072921 -0.192292 -0.379399 5.587511 -49.821728 -0.413283 178.048407 57.584180 177.922362 -2.562216 -42.604517 3.680910 0.013306 0.228505 -0.033022
-28.960426 44.513155 25.426694 177.555192 -25.052547 -1.927934 -0.532801 17.543393 2.299294 -0.087263 1.860493 0.266080 -0.142482 3.163175 0.484050 -0.440550 15.332969 2.355357 -1.912812 12.991003 -4.617453 -0.949155 -11.984782 -4.468494 14.042763 -1.934730 -10.311571 0.198122 -30.305062 -41.853730 -169.239635 -70.469733 -176.988794 -7.602336 -8.028762 -14.305286 -17.013861 -3.281096 -1.751827 1.912667 -33.623382 21.485077 168.154001 -64.684056 174.433527 14.892179 -1.544260 18.344264 4.785171 -64.490787 1.743703 -156.653409 69.168015 -153.044617 -10.639131 -23.691734 9.405886 0.105396 -0.246537 -0.371979 5.584267 -49.733088 -0.414141 178.067784 57.549136 177.960230 -2.557702 -42.599231 3.666097 0.013838 0.198726 -0.030929
-28.928516 44.473909 25.439261 177.567487 -25.179098 -1.928374 -0.536409 17.561983 2.225847 -0.092571 1.932298 0.308007 -0.142548 3.174680 0.483140 -0.445948 15.362858 2.283640 -1.844329 13.065110 -4.604199 -0.899660 -11.930052 -4.454124 13.810345 -1.592916 -10.022769 -0.703446 -29.086022 -40.540054 -170.600444 -69.951944 -174.847532 -7.188548 -7.927310 -14.001942 -16.764897 -2.913273 -1.999670 2.504417 -32.079307 20.341143 168.194407 -64.466737 173.603571 14.534380 -1.277750 17.592774 4.727783 -64.459160 1.845850 -156.870872 69.103004 -153.276155 -10.741097 -23.737246 9.519669 0.120351 -0.269718 -0.362279 5.563400 -49.648139 -0.378319 178.074422 57.512098 177.986237 -2.531017 -42.651919 3.657931 -0.001138 0.215679 -0.050759
-28.903851 44.432447 25.446984 177.587354 -25.330421 -1.904694 -0.542128 17.606671 2.118658 -0.107065 2.002275 0.357113 -0.127180 3.156184 0.427054 -0.434345 15.433535 2.252597 -1.779400 13.130323 -4.571502 -0.840007 -11.862544 -4.452613 13.576881 -1.297073 -9.741111 -1.486428 -27.855434 -39.248984 -171.646233 -69.591936 -173.023065 -6.817018 -7.852190 -14.021131 -16.551803 -2.562046 -2.210564 2.930826 -30.558564 19.310857 168.541681 -64.336528 172.626543 14.103421 -1.023526 16.957062 4.689969 -64.401551 1.909630 -157.036189 69.026307 -153.470217 -10.852808 -23.755847 9.630295 0.147322 -0.324585 -0.340530 5.569518 -49.542853 -0.393360 178.024904 57.467133 177.967926 -2.542625 -42.667975 3.635186 0.002463 0.198998 -0.048128
-28.875414 44.387407 25.456266 177.596769 -25.466875 -1.917727 -0.514664 17.658088 2.067905 -0.093579 1.968723 0.304265 -0.129124 3.224847 0.455289 -0.415640 15.507081 2.240628 -1.725120 13.189931 -4.553455 -0.786170 -11.800986 -4.444193 13.333462 -1.017238 -9.466470 -2.106981 -26.626118 -38.050325 -172.401309 -69.378753 -171.542124 -6.462297 -7.778361 -14.298341 -16.385670 -2.242793 -2.402770 3.232405 -29.084917 18.360791 169.172306 -64.291675 171.534152 13.573478 -0.762252 16.414267 4.543176 -64.361791 2.092978 -157.076016 68.930539 -153.553713 -10.906479 -23.817532 9.726229 0.161920 -0.344486 -0.319583 5.525178 -49.467772 -0.329271 178.052621 57.407087 178.008265 -2.527704 -42.677059 3.617823 0.004830 0.171871 -0.045020
-28.847098 44.341387 25.463586 177.633124 -25.605970 -1.958205 -0.499351 17.708170 2.037162 -0.083159 1.971784 0.283086 -0.132746 3.271029 0.468243 -0.397891 15.574356 2.205683 -1.679097 13.248269 -4.529923 -0.742427 -11.740868 -4.427992 13.087767 -0.735618 -9.167605 -2.538352 -25.416980 -36.981529 -172.957927 -69.287556 -170.343280 -6.091485 -7.683435 -14.744685 -16.256799 -1.957627 -2.571829 3.439150 -27.657857 17.476235 170.039282 -64.320176 170.372004 12.932572 -0.505154 15.930186 4.307595 -64.320647 2.340621 -157.090601 68.828536 -153.624943 -10.944243 -23.862460 9.775239 0.185718 -0.388853 -0.260332 5.420220 -49.389593 -0.230849 178.090557 57.345394 178.044182 -2.506788 -42.705961 3.620686 -0.000082 0.163571 -0.062950
